<?xml version="1.0" encoding="UTF-8"?>
<!DOCTYPE svg PUBLIC "-//W3C//DTD SVG 1.1//EN" "http://www.w3.org/Graphics/SVG/1.1/DTD/svg11.dtd">
<svg xmlns="http://www.w3.org/2000/svg" version="1.1" width="40px" height="40px" style="shape-rendering:geometricPrecision; text-rendering:geometricPrecision; image-rendering:optimizeQuality; fill-rule:evenodd; clip-rule:evenodd" xmlns:xlink="http://www.w3.org/1999/xlink">
<g><path style="opacity:0.988" fill="#538ecc" d="M 6.5,3.5 C 11.2845,2.83917 15.6178,3.83917 19.5,6.5C 34.2908,0.121676 39.7908,4.78834 36,20.5C 31.8333,26 27,30.8333 21.5,35C 20.1667,35.6667 18.8333,35.6667 17.5,35C 11.5901,29.7608 6.42341,23.9275 2,17.5C 0.308542,11.6102 1.80854,6.94358 6.5,3.5 Z"/></g>
<g><path style="opacity:1" fill="#dceefd" d="M 8.5,4.5 C 13.0604,4.2814 16.7271,5.94806 19.5,9.5C 25.4141,2.62327 30.9141,2.9566 36,10.5C 36.5976,14.0527 35.9309,17.386 34,20.5C 30.5,25.3333 26.3333,29.5 21.5,33C 19.212,33.4175 17.212,32.7509 15.5,31C 10.1951,26.7009 6.02843,21.5342 3,15.5C 2.17574,10.4818 4.00907,6.81517 8.5,4.5 Z"/></g>
</svg>
