<svg width="149" height="96" viewBox="0 0 149 96" fill="none" xmlns="http://www.w3.org/2000/svg">
<g id="&#208;&#191;&#208;&#190;&#208;&#184;&#209;&#129;&#208;&#186;">
<g id="Clip path group">
<mask id="mask0_232_531" style="mask-type:luminance" maskUnits="userSpaceOnUse" x="0" y="0" width="88" height="88">
<g id="SVGID_129_">
<path id="Vector" d="M44.78 42.9093C38.0029 36.1322 38.0029 25.1358 44.78 18.3587C51.5642 11.5745 62.5534 11.5745 69.3377 18.3587C76.122 25.1358 76.122 36.1322 69.3377 42.9093C65.9492 46.2978 61.5058 47.9957 57.0625 47.9957C52.6119 47.9957 48.1685 46.305 44.78 42.9093ZM35.3875 8.96624C24.196 20.1578 23.4734 37.8446 33.2127 49.8814L3.46022 72.5535C-0.549656 75.6096 -0.947033 81.498 2.62211 85.0672C6.18404 88.6363 12.0797 88.2389 15.1358 84.2291L37.8078 54.4765C49.8374 64.2158 67.5315 63.4933 78.723 52.3018C90.6876 40.3372 90.6876 20.9381 78.723 8.97345C72.7407 2.99115 64.9016 1.30572e-05 57.0552 1.30572e-05C49.2161 -0.00721194 41.3698 2.98394 35.3875 8.96624Z" fill="white"/>
</g>
</mask>
<g mask="url(#mask0_232_531)">
<path id="Vector_2" d="M135.006 44.3109L44.8738 134.45L-45.2581 44.3109L44.8738 -45.821L135.006 44.3109Z" fill="url(#paint0_linear_232_531)"/>
</g>
</g>
<g id="Group" opacity="0.71">
<g id="Group_2">
<g id="Clip path group_2">
<mask id="mask1_232_531" style="mask-type:luminance" maskUnits="userSpaceOnUse" x="55" y="31" width="94" height="65">
<g id="SVGID_144_">
<path id="Vector_3" d="M148.82 31.7899H55.0901V95.3338H148.82V31.7899Z" fill="white"/>
</g>
</mask>
<g mask="url(#mask1_232_531)">
<g id="Group_3">
<g id="Clip path group_3">
<mask id="mask2_232_531" style="mask-type:luminance" maskUnits="userSpaceOnUse" x="55" y="31" width="94" height="65">
<g id="SVGID_146_">
<path id="Vector_4" d="M141.595 31.7899H62.3151C58.3269 31.7899 55.0901 35.0267 55.0901 39.0149V88.1161C55.0901 92.1043 58.3269 95.3411 62.3151 95.3411H141.602C145.59 95.3411 148.827 92.1043 148.827 88.1161V39.0149C148.82 35.0267 145.59 31.7899 141.595 31.7899ZM81.837 85.2044C78.3474 85.2044 75.5224 82.3794 75.5224 78.8897C75.5224 75.4001 78.3474 72.5751 81.837 72.5751C85.3267 72.5751 88.1517 75.4001 88.1517 78.8897C88.1517 82.3722 85.3267 85.2044 81.837 85.2044ZM101.959 85.2044C98.469 85.2044 95.644 82.3794 95.644 78.8897C95.644 75.4001 98.469 72.5751 101.959 72.5751C105.448 72.5751 108.273 75.4001 108.273 78.8897C108.273 82.3722 105.448 85.2044 101.959 85.2044ZM122.073 85.2044C118.583 85.2044 115.758 82.3794 115.758 78.8897C115.758 75.4001 118.583 72.5751 122.073 72.5751C125.563 72.5751 128.388 75.4001 128.388 78.8897C128.388 82.3722 125.563 85.2044 122.073 85.2044Z" fill="white"/>
</g>
</mask>
<g mask="url(#mask2_232_531)">
<path id="Vector_5" d="M101.959 -15.0714L180.595 63.5655L101.959 142.202L23.3218 63.5655L101.959 -15.0714Z" fill="url(#paint1_linear_232_531)"/>
</g>
</g>
</g>
</g>
</g>
</g>
</g>
</g>
<defs>
<linearGradient id="paint0_linear_232_531" x1="79.4976" y1="9.74291" x2="3.40014" y2="85.8403" gradientUnits="userSpaceOnUse">
<stop stop-color="#BB1A74"/>
<stop offset="1" stop-color="#FFB57E"/>
</linearGradient>
<linearGradient id="paint1_linear_232_531" x1="64.6625" y1="26.459" x2="139.07" y2="100.866" gradientUnits="userSpaceOnUse">
<stop stop-color="#F8C4FF"/>
<stop offset="0.3992" stop-color="#FAD9FF"/>
<stop offset="1" stop-color="white"/>
</linearGradient>
</defs>
</svg>
