<svg width="127" height="110" viewBox="0 0 127 110" fill="none" xmlns="http://www.w3.org/2000/svg">
<mask id="mask0_232_611" style="mask-type:luminance" maskUnits="userSpaceOnUse" x="12" y="0" width="111" height="69">
<path d="M19.9262 0.98645C15.6634 0.98645 12.2026 4.44723 12.2026 8.70998V60.2965C12.2026 64.5592 15.6634 68.02 19.9262 68.02H114.884C119.147 68.02 122.608 64.5592 122.608 60.2965V8.70998C122.608 4.44723 119.154 0.98645 114.884 0.98645H19.9262Z" fill="white"/>
</mask>
<g mask="url(#mask0_232_611)">
<path d="M67.4016 -54.2197L156.125 34.496L67.4016 123.219L-21.3142 34.496L67.4016 -54.2197Z" fill="url(#paint0_linear_232_611)"/>
</g>
<mask id="mask1_232_611" style="mask-type:luminance" maskUnits="userSpaceOnUse" x="-25" y="-42" width="543" height="362">
<path d="M517.23 -41.6411H-24.645V319.609H517.23V-41.6411Z" fill="white"/>
</mask>
<g mask="url(#mask1_232_611)">
<mask id="mask2_232_611" style="mask-type:luminance" maskUnits="userSpaceOnUse" x="-39" y="-56" width="543" height="362">
<path d="M503.502 -55.3687H-38.3726V305.881H503.502V-55.3687Z" fill="white"/>
</mask>
<g mask="url(#mask2_232_611)">
<g opacity="0.71">
<mask id="mask3_232_611" style="mask-type:luminance" maskUnits="userSpaceOnUse" x="0" y="12" width="112" height="81">
<path d="M111.113 12.503H0.70752V92.1875H111.113V12.503Z" fill="white"/>
</mask>
<g mask="url(#mask3_232_611)">
<mask id="mask4_232_611" style="mask-type:luminance" maskUnits="userSpaceOnUse" x="0" y="12" width="112" height="81">
<path d="M103.389 12.503H8.43104C4.16829 12.503 0.70752 15.9638 0.70752 20.2265V71.813C0.70752 76.0758 4.16829 79.5365 8.43104 79.5365H39.7514C43.6457 79.5365 47.2437 81.6173 49.1873 84.9842L52.0628 89.9695C53.7679 92.9245 58.0379 92.9245 59.743 89.9695L62.6185 84.9842C64.5621 81.6101 68.1601 79.5365 72.0544 79.5365H103.375C107.638 79.5365 111.098 76.083 111.098 71.813V20.2265C111.113 15.9565 107.652 12.503 103.389 12.503ZM90.955 52.3416C90.955 54.6392 89.091 56.5032 86.7934 56.5032H25.0196C22.7221 56.5032 20.858 54.6392 20.858 52.3416C20.858 50.0441 22.7221 48.18 25.0196 48.18H86.7934C89.091 48.18 90.955 50.0441 90.955 52.3416ZM86.7934 41.5258H25.0196C22.7221 41.5258 20.858 39.6618 20.858 37.3642C20.858 35.0667 22.7221 33.2026 25.0196 33.2026H86.7934C89.091 33.2026 90.955 35.0667 90.955 37.3642C90.955 39.6618 89.091 41.5258 86.7934 41.5258Z" fill="white"/>
</mask>
<g mask="url(#mask4_232_611)">
<path d="M55.9065 -42.7032L151.32 52.7102L55.9065 148.124L-39.5068 52.7102L55.9065 -42.7032Z" fill="url(#paint1_linear_232_611)"/>
</g>
</g>
</g>
</g>
<g opacity="0.74">
<mask id="mask5_232_611" style="mask-type:luminance" maskUnits="userSpaceOnUse" x="-1" y="11" width="113" height="82">
<path d="M111.409 11.8237H-0.0800781V92.592H111.409V11.8237Z" fill="white"/>
</mask>
<g mask="url(#mask5_232_611)">
<path d="M103.144 12.3656V12.7269H8.18536C4.11768 12.7341 0.830311 16.0215 0.823086 20.0892V71.6757C0.830311 75.7433 4.11768 79.0307 8.18536 79.0379H39.5057C43.5301 79.0379 47.2437 81.1838 49.2595 84.6662L52.135 89.6515C52.9226 91.0098 54.2881 91.6889 55.6608 91.6889C57.0408 91.6889 58.3991 91.0098 59.1866 89.6515L62.0622 84.6662C64.0707 81.1838 67.7916 79.0379 71.8159 79.0379H103.136C107.204 79.0307 110.491 75.7433 110.499 71.6757V20.0892C110.491 16.0215 107.204 12.7341 103.136 12.7269V12.3656V12.0044C107.601 12.0044 111.221 15.6241 111.221 20.0892V71.6757C111.221 76.1407 107.601 79.7604 103.136 79.7604H71.8159C68.0517 79.7604 64.5693 81.769 62.6908 85.0275L59.8152 90.0127C58.8976 91.6095 57.272 92.4114 55.6608 92.4114C54.0497 92.4114 52.424 91.6095 51.5065 90.0127L48.6309 85.0275C46.7524 81.769 43.27 79.7604 39.5057 79.7604H8.18536C3.72031 79.7604 0.100586 76.1407 0.100586 71.6757V20.0892C0.100586 15.6241 3.72031 12.0044 8.18536 12.0044H103.144V12.3656Z" fill="url(#paint2_linear_232_611)"/>
</g>
</g>
</g>
<defs>
<linearGradient id="paint0_linear_232_611" x1="25.1929" y1="-7.46569" x2="109.387" y2="76.7287" gradientUnits="userSpaceOnUse">
<stop stop-color="#BB1A74"/>
<stop offset="1" stop-color="#FFB57E"/>
</linearGradient>
<linearGradient id="paint1_linear_232_611" x1="10.4847" y1="7.25614" x2="94.679" y2="91.4504" gradientUnits="userSpaceOnUse">
<stop stop-color="#F8C4FF"/>
<stop offset="0.3992" stop-color="#FAD9FF"/>
<stop offset="1" stop-color="white"/>
</linearGradient>
<linearGradient id="paint2_linear_232_611" x1="13.1833" y1="3.40479" x2="98.1443" y2="88.3657" gradientUnits="userSpaceOnUse">
<stop stop-color="white"/>
<stop offset="1" stop-color="white"/>
</linearGradient>
</defs>
</svg>
